<svg width="280" height="50" viewBox="0 0 280 50" fill="none" xmlns="http://www.w3.org/2000/svg">
<path d="M24.9999 1C11.7449 1 0.999847 11.745 0.999847 25C0.999847 38.255 11.7449 49 24.9999 49C38.2549 49 48.9999 38.255 48.9999 25C48.9999 11.745 38.2549 1 24.9999 1ZM34.2299 28.0775C34.2299 28.0775 36.3524 30.1725 36.8749 31.145C36.8899 31.165 36.8974 31.185 36.9024 31.195C37.1149 31.5525 37.1649 31.83 37.0599 32.0375C36.8849 32.3825 36.2849 32.5525 36.0799 32.5675H32.3299C32.0699 32.5675 31.5249 32.5 30.8649 32.045C30.3574 31.69 29.8574 31.1075 29.3699 30.54C28.6424 29.695 28.0124 28.965 27.3774 28.965C27.2967 28.9649 27.2165 28.9775 27.1399 29.0025C26.6599 29.1575 26.0449 29.8425 26.0449 31.6675C26.0449 32.2375 25.5949 32.565 25.2774 32.565H23.5599C22.9749 32.565 19.9274 32.36 17.2274 29.5125C13.9223 26.025 10.9473 19.03 10.9223 18.965C10.7348 18.5125 11.1223 18.27 11.5448 18.27H15.3323C15.8373 18.27 16.0023 18.5775 16.1174 18.85C16.2523 19.1675 16.7474 20.43 17.5599 21.85C18.8774 24.165 19.6849 25.105 20.3324 25.105C20.4538 25.1036 20.573 25.0727 20.6799 25.015C21.5249 24.545 21.3674 21.5325 21.3299 20.9075C21.3299 20.79 21.3274 19.56 20.8948 18.97C20.5849 18.5425 20.0574 18.38 19.7374 18.32C19.8669 18.1413 20.0375 17.9964 20.2348 17.8975C20.8148 17.6075 21.8599 17.565 22.8974 17.565H23.4749C24.5999 17.58 24.8899 17.6525 25.2974 17.755C26.1224 17.9525 26.1399 18.485 26.0674 20.3075C26.0449 20.825 26.0224 21.41 26.0224 22.1C26.0224 22.25 26.0149 22.41 26.0149 22.58C25.9899 23.5075 25.9599 24.56 26.6149 24.9925C26.7003 25.0461 26.799 25.0746 26.8999 25.075C27.1274 25.075 27.8124 25.075 29.6674 21.8925C30.2394 20.8681 30.7366 19.8037 31.1549 18.7075C31.1924 18.6425 31.3024 18.4425 31.4324 18.365C31.5283 18.3161 31.6347 18.2912 31.7424 18.2925H36.1949C36.6799 18.2925 37.0124 18.365 37.0749 18.5525C37.1849 18.85 37.0549 19.7575 35.0224 22.51L34.1149 23.7075C32.2724 26.1225 32.2724 26.245 34.2299 28.0775Z" fill="white"/>
<g clip-path="url(#clip0_1083_2)">
<path d="M124 24C124 30.3652 121.471 36.4697 116.97 40.9706C112.47 45.4714 106.365 48 99.9998 48C93.6347 48 87.5302 45.4714 83.0293 40.9706C78.5284 36.4697 75.9998 30.3652 75.9998 24C75.9998 17.6348 78.5284 11.5303 83.0293 7.02944C87.5302 2.52856 93.6347 0 99.9998 0C106.365 0 112.47 2.52856 116.97 7.02944C121.471 11.5303 124 17.6348 124 24ZM100.861 17.718C98.5268 18.69 93.8588 20.7 86.8628 23.748C85.7288 24.198 85.1318 24.642 85.0778 25.074C84.9878 25.803 85.9028 26.091 87.1478 26.484L87.6728 26.649C88.8968 27.048 90.5468 27.513 91.4018 27.531C92.1818 27.549 93.0488 27.231 94.0058 26.571C100.543 22.158 103.918 19.929 104.128 19.881C104.278 19.845 104.488 19.803 104.626 19.929C104.767 20.052 104.752 20.289 104.737 20.352C104.647 20.739 101.056 24.075 99.1988 25.803C98.6198 26.343 98.2088 26.724 98.1248 26.811C97.9399 27 97.7519 27.1861 97.5608 27.369C96.4208 28.467 95.5688 29.289 97.6058 30.633C98.5868 31.281 99.3728 31.812 100.156 32.346C101.008 32.928 101.86 33.507 102.964 34.233C103.243 34.413 103.513 34.608 103.774 34.794C104.767 35.502 105.664 36.138 106.765 36.036C107.407 35.976 108.07 35.376 108.406 33.576C109.201 29.325 110.764 20.118 111.124 16.323C111.146 16.0075 111.133 15.6906 111.085 15.378C111.057 15.1258 110.935 14.8934 110.743 14.727C110.47 14.5386 110.144 14.4409 109.813 14.448C108.913 14.463 107.524 14.946 100.861 17.718Z" fill="white"/>
</g>
<g clip-path="url(#clip1_1083_2)">
<path d="M177.001 0C163.195 0 152 11.1936 152 25.0006C152 35.2378 158.156 44.0314 166.965 47.8981C166.894 46.1526 166.951 44.0558 167.4 42.159C167.881 40.1282 170.617 28.5359 170.617 28.5359C170.617 28.5359 169.818 26.9397 169.818 24.5808C169.818 20.8763 171.965 18.1077 174.638 18.1077C176.912 18.1077 178.011 19.8154 178.011 21.8609C178.011 24.1468 176.554 27.5635 175.804 30.7327C175.177 33.3859 177.134 35.5481 179.75 35.5481C184.486 35.5481 187.676 29.4647 187.676 22.2558C187.676 16.7782 183.986 12.6769 177.274 12.6769C169.69 12.6769 164.966 18.3321 164.966 24.6487C164.966 26.8282 165.608 28.3635 166.615 29.5513C167.077 30.0981 167.141 30.318 166.974 30.9462C166.854 31.4058 166.578 32.5128 166.465 32.9519C166.299 33.5853 165.786 33.8109 165.213 33.5776C161.72 32.1513 160.093 28.3263 160.093 24.0263C160.093 16.9237 166.082 8.40898 177.96 8.40898C187.506 8.40898 193.788 15.316 193.788 22.732C193.788 32.5378 188.335 39.8647 180.298 39.8647C177.6 39.8647 175.061 38.4051 174.191 36.7487C174.191 36.7487 172.74 42.5077 172.433 43.6218C171.902 45.5494 170.865 47.4763 169.916 48.9769C172.216 49.6571 174.602 50.0025 177.001 50.0026C190.806 50.0013 202 38.8071 202 25.0006C202 11.1936 190.806 0 177.001 0Z" fill="white"/>
</g>
<g clip-path="url(#clip2_1083_2)">
<path fill-rule="evenodd" clip-rule="evenodd" d="M272.744 9.66943C276.158 14.0497 278.009 19.4465 278 25.0002C278 38.8053 266.805 50.0002 253.001 50.0002C243.287 50.0002 234.866 44.4579 230.728 36.3649H241.624C246.816 36.3649 250.443 33.5662 250.443 29.0925C250.443 19.6111 239.505 23.4739 239.505 20.1092C239.505 18.488 240.806 17.8983 243.186 17.8983H250.769C252.871 17.8983 255.344 18.2752 255.344 20.5688V28.1245C255.344 33.5957 259.616 36.3643 264.044 36.3643C268.548 36.3643 272.744 33.5957 272.744 28.1245V9.66943H272.744Z" fill="white"/>
<path fill-rule="evenodd" clip-rule="evenodd" d="M253.001 2.43241e-05C258.017 -0.00698868 262.919 1.50262 267.063 4.33079V28.3013C267.063 29.9628 265.704 31.3224 264.045 31.3224C262.384 31.3224 261.026 29.9628 261.026 28.3013V21.1186C261.026 15.3846 258.124 12.9994 254.345 12.9994H242.044C237.591 12.9994 233.897 15.834 233.897 20.3289C233.897 22.6289 234.882 25.9994 239.542 26.8353C243.337 27.5186 244.835 27.3199 244.835 29.3506C244.835 31.3224 242.626 31.3224 239.71 31.3224H228.808C228.27 29.2582 227.998 27.1334 228 25C228 11.1981 239.196 2.43241e-05 253.001 2.43241e-05Z" fill="white"/>
</g>
<defs>
<clipPath id="clip0_1083_2">
<rect width="50" height="50" fill="white" transform="translate(76)"/>
</clipPath>
<clipPath id="clip1_1083_2">
<rect width="50" height="50" fill="white" transform="translate(152)"/>
</clipPath>
<clipPath id="clip2_1083_2">
<rect width="50" height="50" fill="white" transform="translate(228)"/>
</clipPath>
</defs>
</svg>
